:version 1.10
:name ASF
:units
  mass 1
  length 1
  angle deg
:documentation
  ASF file generated by Kaydara
:root
  axis xyz
  order  tx ty tz rx ry rz
  position 0 0 0
  orientation 0 0 0
:bonedata
  begin
    id 1
    name SpineDummy
    direction 0.999998 -0.00179978 1.38929e-006
    length 3.60008
    axis 0 0 0 xyz
  end
  begin
    id 2
    name Spine
    direction 0.964365 0.262802 0.0305839
    length 8.13928
    axis 1.33928 -1.75354 15.2838 xyz
    dof rx ry rz
  end
  begin
    id 3
    name Spine1
    direction 0.811168 0.572065 0.12144
    length 7.14954
    axis 2.2224 -6.9761 35.2157 xyz
    dof rx ry rz
  end
  begin
    id 4
    name Neck
    direction 0 0 0
    length 0
    axis 2.2224 -6.9761 35.2157 xyz
    dof rx ry rz
  end
  begin
    id 5
    name HeadDummy
    direction 0.810939 0.572387 0.121455
    length 3.55534
    axis 2.2224 -6.9761 35.2157 xyz
  end
  begin
    id 6
    name Head
    direction 0.998226 -0.000232542 0.0595419
    length 7.35666
    axis -3.03688 -3.41352 -0.0133467 xyz
    dof rx ry rz
  end
  begin
    id 7
    name R_ClavicleDummy
    direction 0.531669 -0.194489 -0.824319
    length 2.49392
    axis 2.2224 -6.9761 35.2157 xyz
  end
  begin
    id 8
    name R_Clavicle
    direction -0.155119 0.0480802 -0.986725
    length 4.485
    axis -54.2764 80.6538 162.779 xyz
    dof rx ry rz
  end
  begin
    id 9
    name R_UpperArm
    direction -0.955567 0.200068 -0.216484
    length 10.1122
    axis -72.9943 12.5026 168.175 xyz
    dof rx ry rz
  end
  begin
    id 10
    name R_Forearm
    direction -0.61433 0.385743 0.688332
    length 9.39148
    axis -117.015 -43.4982 147.875 xyz
    dof rx ry rz
  end
  begin
    id 11
    name R_Hand
    direction -0.699429 0.0170333 0.714499
    length 3.66324
    axis -45.0303 -36.7097 175.478 xyz
    dof rx ry rz
  end
  begin
    id 12
    name L_ClavicleDummy
    direction 0.40287 -0.36502 0.839319
    length 2.49392
    axis 2.2224 -6.9761 35.2157 xyz
  end
  begin
    id 13
    name L_Clavicle
    direction -0.231271 -0.0726419 0.970174
    length 4.485
    axis 18.4357 -75.9711 -162.563 xyz
    dof rx ry rz
  end
  begin
    id 14
    name L_UpperArm
    direction -0.917494 0.144359 0.370629
    length 10.1122
    axis 56.0417 -21.7544 171.058 xyz
    dof rx ry rz
  end
  begin
    id 15
    name L_Forearm
    direction -0.496786 0.615074 -0.612281
    length 9.39148
    axis 89.8094 37.7546 128.927 xyz
    dof rx ry rz
  end
  begin
    id 16
    name L_Hand
    direction -0.409932 0.64962 -0.640274
    length 3.66324
    axis -0.424369 32.133 128.52 xyz
    dof rx ry rz
  end
  begin
    id 17
    name L_ThighDummy
    direction -1.84081e-006 1.87549e-006 1
    length 3.13049
    axis 0 0 0 xyz
  end
  begin
    id 18
    name L_Thigh
    direction -0.947739 0.307978 0.083308
    length 17.9961
    axis 173.219 -4.77873 161.998 xyz
    dof rx ry rz
  end
  begin
    id 19
    name L_Calf
    direction -0.728814 -0.684427 0.0197583
    length 13.3367
    axis 167.331 -1.13214 -136.799 xyz
    dof rx ry rz
  end
  begin
    id 20
    name L_Foot
    direction -0.9028 0.418719 0.0981191
    length 5.8674
    axis 163.436 11.5135 -155.37 xyz
    dof rx ry rz
  end
  begin
    id 21
    name L_Toe0
    direction -0.35341 0.886259 0.299411
    length 4.75286
    axis 169.316 -17.4222 111.74 xyz
    dof rx ry rz
  end
  begin
    id 22
    name R_ThighDummy
    direction 9.32778e-007 -8.82053e-007 -1
    length 3.13049
    axis 0 0 0 xyz
  end
  begin
    id 23
    name R_Thigh
    direction -0.925064 0.37528 -0.0585023
    length 17.9961
    axis -178.698 3.35385 157.919 xyz
    dof rx ry rz
  end
  begin
    id 24
    name R_Calf
    direction -0.68969 -0.718776 -0.0876886
    length 13.3367
    axis -160.504 5.03065 -133.817 xyz
    dof rx ry rz
  end
  begin
    id 25
    name R_Foot
    direction -0.857405 0.418858 -0.299022
    length 5.8674
    axis -161.328 4.38911 -154.413 xyz
    dof rx ry rz
  end
  begin
    id 26
    name R_Toe0
    direction -0.100745 0.952789 -0.286433
    length 4.75286
    axis 171.683 16.6445 96.0359 xyz
    dof rx ry rz
  end
:hierarchy
  begin
    root SpineDummy L_ThighDummy R_ThighDummy
    SpineDummy Spine
    Spine Spine1
    Spine1 Neck
    Neck HeadDummy R_ClavicleDummy L_ClavicleDummy
    HeadDummy Head
    R_ClavicleDummy R_Clavicle
    R_Clavicle R_UpperArm
    R_UpperArm R_Forearm
    R_Forearm R_Hand
    L_ClavicleDummy L_Clavicle
    L_Clavicle L_UpperArm
    L_UpperArm L_Forearm
    L_Forearm L_Hand
    L_ThighDummy L_Thigh
    L_Thigh L_Calf
    L_Calf L_Foot
    L_Foot L_Toe0
    R_ThighDummy R_Thigh
    R_Thigh R_Calf
    R_Calf R_Foot
    R_Foot R_Toe0
  end

:SAMPLES-PER-SECOND 30
:FULLY-SPECIFIED
:DEGREES
318
root  3.86498 17.1187 6.31975 -50.2908 67.3688 -82.0058
Spine  1.25779 11.5517 8.68546
Spine1  -0.783279 4.00097 13.8852
Neck  3.97569e-016 0 -2.38542e-015
Head  -2.46629 4.6862 55.4947
R_Clavicle  0.367968 -32.7306 2.66843
R_UpperArm  30.5177 -32.0935 86.2694
R_Forearm  17.7385 -21.8345 17.3114
R_Hand  -7.48509 14.9481 -53.1333
L_Clavicle  -0.452361 15.9903 7.24058
L_UpperArm  -42.4611 62.7479 90.2827
L_Forearm  69.6776 -12.8867 -15.3337
L_Hand  9.72228 -30.0584 -41.3206
L_Thigh  -10.5458 48.5283 30.7386
L_Calf  -34.6926 -6.19778 41.1156
L_Foot  10.6751 20.2745 15.3385
L_Toe0  0.505156 0.0344455 -6.1361
R_Thigh  -4.98413 -58.799 17.4835
R_Calf  16.5472 10.7802 48.7428
R_Foot  -0.278636 -12.7625 -14.9871
R_Toe0  -1.78853 -0.271018 -17.3236
319
root  4.64039 17.0903 7.13538 -76.3286 63.0023 -96.6051
Spine  2.21437 9.8057 9.52009
Spine1  0.431465 4.56211 15.7636
Neck  3.97569e-016 0 -2.38542e-015
Head  -4.18408 -0.492446 55.6654
R_Clavicle  0.264616 -37.8697 3.15463
R_UpperArm  15.3299 -39.1089 102.041
R_Forearm  -0.629903 -12.7397 -0.121279
R_Hand  -17.9671 37.7353 -61.9229
L_Clavicle  -0.373084 18.3696 6.86128
L_UpperArm  -30.0084 62.6255 102.117
L_Forearm  70.4902 -13.7592 -16.4403
L_Hand  6.76038 -27.2205 -33.2339
L_Thigh  -4.07771 48.9951 40.3625
L_Calf  -37.228 -10.0322 47.9164
L_Foot  6.33796 10.3303 12.7116
L_Toe0  0.505156 0.0344455 -6.1361
R_Thigh  -8.89438 -58.1766 10.6697
R_Calf  21.446 11.6954 38.5659
R_Foot  -0.44273 -12.7879 -14.2639
R_Toe0  -1.78853 -0.271001 -17.3236
320
root  5.71006 16.6693 7.77 -95.5491 60.4305 -101.127
Spine  3.1603 9.97685 10.2853
Spine1  0.716861 2.87232 16.3516
Neck  3.97569e-016 0 -2.38542e-015
Head  -3.81251 -5.10607 56.0619
R_Clavicle  0.244094 -36.6019 3.392
R_UpperArm  3.71024 -43.5621 109.873
R_Forearm  -20.7664 2.32326 -13.1974
R_Hand  -26.2679 49.8516 -68.148
L_Clavicle  -0.365642 18.9096 6.46871
L_UpperArm  -13.0117 58.8985 111.589
L_Forearm  65.7614 -11.6395 -13.589
L_Hand  5.09502 -26.5252 -25.8125
L_Thigh  2.31169 46.1835 55.3654
L_Calf  -24.2651 -8.53513 47.4351
L_Foot  7.91726 12.7743 14.8193
L_Toe0  0.505156 0.0344455 -6.1361
R_Thigh  0.646995 -53.0709 1.50078
R_Calf  17.1989 10.7475 35.7984
R_Foot  0.0687151 -9.61704 -14.324
R_Toe0  -1.78853 -0.270984 -17.3236
321
root  6.99141 16.0984 7.88394 -120.327 58.2305 -108.769
Spine  4.36045 8.36472 14.3591
Spine1  0.741536 -4.06193 15.8042
Neck  3.97569e-016 0 -2.38542e-015
Head  -4.25127 -2.71586 55.468
R_Clavicle  0.347495 -29.6316 3.20902
R_UpperArm  10.0326 -51.0005 99.0696
R_Forearm  -37.3016 3.83104 -10.4434
R_Hand  -19.0991 50.7686 -54.5254
L_Clavicle  -0.397595 18.6488 5.4574
L_UpperArm  4.0756 48.7879 111.696
L_Forearm  50.6964 -6.19113 -8.48234
L_Hand  6.38115 -33.1233 -24.9427
L_Thigh  6.97395 42.1175 64.8938
L_Calf  -14.6416 -5.86245 44.371
L_Foot  7.46438 10.9178 15.5184
L_Toe0  0.505156 0.0344455 -6.1361
R_Thigh  10.7296 -49.0769 -2.95224
R_Calf  11.6519 10.1248 33.3601
R_Foot  0.124492 -7.55175 -12.3476
R_Toe0  -1.78853 -0.270967 -17.3236
322
root  8.28874 15.483 7.46779 -149.563 53.3026 -121.707
Spine  4.70345 2.63216 19.1617
Spine1  0.841729 -13.5955 14.9083
Neck  3.97569e-016 0 -2.38542e-015
Head  -7.77626 5.91964 52.6149
R_Clavicle  0.41715 -23.0417 2.8563
R_UpperArm  13.8767 -55.9279 90.7057
R_Forearm  -41.6162 3.22894 -8.60122
R_Hand  -23.7709 55.1877 -59.8643
L_Clavicle  -0.423831 20.3749 3.8772
L_UpperArm  14.1548 32.6635 103.262
L_Forearm  25.7586 1.59938 -8.62448
L_Hand  14.4624 -45.0294 -36.6695
L_Thigh  9.03286 38.0668 66.5028
L_Calf  -16.3308 -5.47209 45.073
L_Foot  8.82939 13.7499 16.3964
L_Toe0  0.505156 0.0344455 -6.1361
R_Thigh  17.9206 -50.2619 -1.51204
R_Calf  6.95491 8.13717 26.0839
R_Foot  -1.12608 -8.30861 -7.75225
R_Toe0  -1.78853 -0.27095 -17.3236
323
root  9.6031 14.9755 6.2862 -177.555 44.1972 -136.084
Spine  3.15723 -5.18791 20.5858
Spine1  0.242639 -21.4028 14.1881
Neck  3.97569e-016 0 -2.38542e-015
Head  -12.8141 12.2185 48.9497
R_Clavicle  0.439221 -18.8013 2.67822
R_UpperArm  12.4789 -58.8965 86.8605
R_Forearm  -41.5401 3.00143 -9.24014
R_Hand  -36.5119 60.658 -75.03
L_Clavicle  -0.545183 24.3555 2.02677
L_UpperArm  6.65583 19.0726 92.6611
L_Forearm  3.34746 8.05056 -12.2984
L_Hand  10.9891 -45.7473 -30.3668
L_Thigh  10.2778 34.0518 66.9478
L_Calf  -18.2585 -5.08145 47.8406
L_Foot  9.30117 16.0303 15.2431
L_Toe0  0.505156 0.0344455 -6.1361
R_Thigh  18.0678 -53.5038 2.86475
R_Calf  3.52827 6.40386 20.1253
R_Foot  -10.14 -32.3857 1.97208
R_Toe0  -1.78853 -0.270934 -17.3236
